# xmcd CD database file
#
# Track frame offsets:
#	150
#	8831
#	25196
#	41888
#	52428
#	61234
#	74660
#	92169
#	105390
#	114634
#	125550
#	145112
#	155471
#	166610
#	176342
#	187161
#	196509
#	209839
#	226003
#	241062
#	261668
#	294100
#	332079
#	340754
#	351571
#
# Disc length: 4787 seconds
#
# Revision: 1
# Processed by: cddbd v1.5.2PL0 Copyright (c) Steve Scherf et al.
# Submitted via: CDex 1.51
#
DISCID=7612b119
DTITLE=RWBY - Volume 4
DYEAR=2017
DGENRE=Soundtrack
TTITLE0=Chapter 4-Family Pt. 1
TTITLE1=Chapter 4-Family Pt. 2
TTITLE2=Chapter 5-Menagerie Pt. 1
TTITLE3=Chapter 5-Menagerie Pt. 2
TTITLE4=Chapter 6-Tipping Point Pt. 1
TTITLE5=Chapter 6-Tipping Point Pt. 2
TTITLE6=Chapter 6-Tipping Point Pt. 3
TTITLE7=Chapter 7-Punished Pt. 1
TTITLE8=Chapter 7-Punished Pt. 2
TTITLE9=Chapter 7-Punished Pt. 3
TTITLE10=Chapter 8-A Much Needed Talk Pt. 1
TTITLE11=Chapter 8-A Much Needed Talk Pt. 2
TTITLE12=Chapter 8-A Much Needed Talk Pt. 3
TTITLE13=Chapter 9-Two Steps Forward, Two Steps Back Pt. 1
TTITLE14=Chapter 9-Two Steps Forward, Two Steps Back Pt. 2
TTITLE15=Chapter 9-Two Steps Forward, Two Steps Back Pt. 3
TTITLE16=Chapter 10-Kuroyuri Pt. 1
TTITLE17=Chapter 10-Kuroyuri Pt. 2
TTITLE18=Chapter 11-Taking Control Pt. 1
TTITLE19=Chapter 11-Taking Control Pt. 2
TTITLE20=Chapter 12-No Safe Haven Pt. 1
TTITLE21=Chapter 12-No Safe Haven Pt. 2
TTITLE22=World of Remnant-Vale
TTITLE23=World of Remnant-Atlas
TTITLE24=World of Remnant-Vacuo
EXTD=YEAR: 2017
EXTT0=
EXTT1=
EXTT2=
EXTT3=
EXTT4=
EXTT5=
EXTT6=
EXTT7=
EXTT8=
EXTT9=
EXTT10=
EXTT11=
EXTT12=
EXTT13=
EXTT14=
EXTT15=
EXTT16=
EXTT17=
EXTT18=
EXTT19=
EXTT20=
EXTT21=
EXTT22=
EXTT23=
EXTT24=
PLAYORDER=
